<svg width="132" height="27" viewBox="0 0 132 27" fill="none" xmlns="http://www.w3.org/2000/svg">
<path d="M0.660156 20.6993H7.53618C7.74994 21.581 8.32888 22.1867 9.26409 22.5162C10.1993 22.8458 11.5353 23.015 13.2721 23.015C15.2405 23.015 16.6389 22.8814 17.4583 22.6231C18.2777 22.3648 18.6874 21.9017 18.6874 21.2337C18.6874 20.2361 17.7611 19.6928 15.9085 19.6126C14.0559 19.5325 12.0252 19.4256 9.81631 19.292C7.60743 19.1584 5.57669 18.7487 3.72408 18.0629C1.87148 17.377 0.945173 15.9163 0.945173 13.6807C0.945173 12.6386 1.23019 11.748 1.80022 11.0087C2.37025 10.2694 3.17186 9.66378 4.20505 9.19172C5.23823 8.71966 6.49409 8.3723 7.9637 8.15853C9.43332 7.94477 11.0633 7.83789 12.8446 7.83789C16.7903 7.83789 19.7295 8.30995 21.6801 9.26297C23.6307 10.216 24.7351 11.7212 24.9934 13.7876H18.153C17.9126 12.9771 17.3603 12.4427 16.4786 12.1666C15.5968 11.8905 14.3855 11.7569 12.8446 11.7569C11.2058 11.7569 9.94991 11.8727 9.08595 12.1131C8.222 12.3536 7.78557 12.799 7.78557 13.467C7.78557 14.3487 8.70296 14.8119 10.5467 14.8742C12.3904 14.9366 14.4122 15.0435 16.6211 15.1949C18.83 15.3463 20.8518 15.7827 22.6955 16.4953C24.5392 17.2078 25.4566 18.6596 25.4566 20.8418C25.4566 23.0239 24.4323 24.6271 22.3748 25.5623C20.3174 26.4976 17.2891 26.9696 13.2721 26.9696C9.25518 26.9696 6.22688 26.5243 4.18723 25.6336C2.14759 24.7429 0.971893 23.0952 0.660156 20.6993Z" />
<path d="M29.0192 20.1292V13.0038H26.4185V8.3367H29.0192V2.92139H35.8596V8.3367H43.5907V13.0038H35.8596V19.3098C35.8596 20.1649 36.1179 20.7973 36.6434 21.2159C37.1689 21.6345 38.0062 21.8393 39.1729 21.8393H43.5907V26.5065H35.6459C33.3925 26.5065 31.718 26.0166 30.6403 25.028C29.5625 24.0393 29.0192 22.4094 29.0192 20.1292Z" />
<path d="M46.1914 8.33691H52.8893V12.1134C53.3881 10.9733 54.2075 10.0559 55.3476 9.3701C56.4876 8.68428 57.9751 8.33691 59.8009 8.33691H63.8268V13.7522H58.4827C56.4876 13.7522 55.0804 14.064 54.2609 14.6963C53.4415 15.3287 53.0318 16.3441 53.0318 17.7425V26.5067H46.1914V8.33691Z" />
<path d="M65.7148 2.88579C65.7148 1.98621 66.0622 1.27367 66.748 0.765981C67.4338 0.258296 68.3869 0 69.5982 0C70.8095 0 71.8249 0.258296 72.5018 0.765981C73.1787 1.27367 73.5172 1.98621 73.5172 2.88579C73.5172 3.83881 73.1787 4.56917 72.5018 5.07685C71.8249 5.58454 70.854 5.84283 69.5982 5.84283C68.3423 5.84283 67.4338 5.58454 66.748 5.07685C66.0622 4.56917 65.7148 3.83881 65.7148 2.88579ZM66.178 8.33673H73.0184V26.5065H66.178V8.33673Z" />
<path d="M75.9756 17.4575C75.9756 14.0373 76.9821 11.579 79.0039 10.0827C81.0257 8.58636 83.7779 7.83819 87.2694 7.83819C89.3624 7.83819 91.1438 8.13212 92.6134 8.72887C94.083 9.32562 95.2409 10.1985 96.0692 11.3653V0.499023H102.91V26.5068H96.2118V23.1935C95.4012 24.4315 94.2434 25.3756 92.7381 26.0258C91.2329 26.676 89.407 27.0055 87.2694 27.0055C83.7779 27.0055 81.0257 26.2485 79.0039 24.7432C76.9821 23.238 75.9756 20.8064 75.9756 17.4575ZM96.0692 18.4194V16.4599C96.0692 14.8923 95.517 13.8146 94.4126 13.2357C93.3081 12.6568 91.6515 12.3628 89.4426 12.3628C87.2337 12.3628 85.6127 12.6478 84.5083 13.2179C83.4038 13.7879 82.8516 14.8656 82.8516 16.4599V18.4194C82.8516 20.0316 83.4038 21.1182 84.5083 21.6793C85.6127 22.2404 87.2694 22.5165 89.4782 22.5165C91.6871 22.5165 93.3081 22.2315 94.4126 21.6615C95.517 21.0915 96.0692 20.0137 96.0692 18.4194Z" />
<path d="M105.867 17.4572C105.867 14.1083 106.962 11.6678 109.162 10.1358C111.362 8.60387 114.533 7.83789 118.692 7.83789C122.852 7.83789 125.729 8.5059 127.973 9.85082C130.218 11.1957 131.34 13.5649 131.34 16.9584V18.0985H112.636V18.4904C112.636 20.0312 113.126 21.1268 114.114 21.7681C115.103 22.4094 116.626 22.73 118.692 22.73C120.501 22.73 121.845 22.5608 122.736 22.2134C123.627 21.866 124.259 21.296 124.642 20.4855H131.269C130.601 22.7923 129.238 24.449 127.172 25.4733C125.105 26.4976 122.282 27.0052 118.692 27.0052C114.533 27.0052 111.362 26.2838 109.162 24.832C106.962 23.3802 105.867 20.9219 105.867 17.4572ZM118.692 11.935C116.911 11.935 115.477 12.1577 114.399 12.6119C113.322 13.0662 112.734 13.8589 112.636 14.9989H124.749C124.678 13.8589 124.17 13.0662 123.217 12.6119C122.264 12.1577 120.759 11.935 118.692 11.935Z" />
</svg>
